<svg height="512pt" viewBox="0 0 512.00006 512" width="512pt" xmlns="http://www.w3.org/2000/svg"><path d="m359.464844 480.996094c0 16.621094-13.46875 30.089844-30.089844 30.089844h-299.285156c-16.621094 0-30.089844-13.457032-30.089844-30.089844 0-75.761719 61.382812-137.5 137.492188-137.5h84.484374c76.097657 0 137.488282 61.738281 137.488282 137.5zm0 0" fill="#d2d2d7"/><path d="m359.464844 480.996094c0 16.621094-13.46875 30.089844-30.089844 30.089844h-271.304688c-16.621093 0-30.089843-13.457032-30.089843-30.089844 0-75.761719 61.382812-137.5 137.492187-137.5h56.503906c76.097657 0 137.488282 61.738281 137.488282 137.5zm0 0" fill="#ebebf0"/><path d="m213.1875 343.351562-33.453125 56.777344-33.453125-56.777344v-81.195312h66.90625zm0 0" fill="#e3a76f"/><path d="m80.746094 451.980469v59.105469h-13.992188v-59.105469c0-3.863281 3.132813-6.996094 6.996094-6.996094 3.871094 0 6.996094 3.132813 6.996094 6.996094zm0 0" fill="#d2d2d7"/><path d="m292.710938 451.980469v59.105469h-13.988282v-59.105469c0-3.863281 3.125-6.996094 6.992188-6.996094 3.863281 0 6.996094 3.132813 6.996094 6.996094zm0 0" fill="#d2d2d7"/><path d="m196.855469 453.878906h-33.625l-17.714844 57.207032h69.640625zm0 0" fill="#6990d7"/><path d="m194.96875 455.304688h-30.472656c-6.15625 0-11.191406-5.035157-11.191406-11.191407v-26.960937c0-6.15625 5.035156-11.191406 11.191406-11.191406h30.472656c6.15625 0 11.191406 5.035156 11.191406 11.191406v26.960937c0 6.15625-5.035156 11.191407-11.191406 11.191407zm0 0" fill="#91aee2"/><path d="m121.121094 208.660156c0 21.59375-17.5 39.097656-39.09375 39.097656-21.589844 0-39.09375-17.503906-39.09375-39.097656 0-21.589844 17.503906-39.09375 39.09375-39.09375 21.59375 0 39.09375 17.503906 39.09375 39.09375zm0 0" fill="#e3a76f"/><path d="m316.878906 208.667969c0 21.589843-17.5 39.09375-39.09375 39.09375-21.589844 0-39.09375-17.503907-39.09375-39.09375 0-21.589844 17.503906-39.09375 39.09375-39.09375 21.59375 0 39.09375 17.503906 39.09375 39.09375zm0 0" fill="#e3a76f"/><path d="m281.550781 54.722656v181.792969c0 47.273437-55.324219 87.011719-88.132812 98.386719-6.152344 2.125-11.507813 3.257812-15.566407 3.257812-12.847656 0-38.773437-11.375-61.480468-29.773437-22.714844-18.390625-42.214844-43.808594-42.214844-71.871094v-181.792969c0-18.535156 15.027344-33.550781 33.550781-33.550781h140.289063c18.539062 0 33.554687 15.015625 33.554687 33.550781zm0 0" fill="#e3a76f"/><path d="m281.550781 54.722656v181.792969c0 40.90625-41.425781 76.167969-73.839843 92.296875-8.976563 4.464844-19.523438 4.5-28.503907.039062-10.195312-5.066406-21.289062-12.03125-31.699219-20.464843-22.71875-18.390625-42.21875-43.808594-42.21875-71.871094v-181.792969c0-18.535156 15.027344-33.550781 33.550782-33.550781h109.15625c18.53125 0 33.554687 15.023437 33.554687 33.550781zm0 0" fill="#f2bb88"/><g fill="#ae583e"><path d="m245.335938 208.894531c0 6.785157-5.5 12.289063-12.285157 12.289063-6.789062 0-12.289062-5.503906-12.289062-12.289063 0-6.785156 5.5-12.285156 12.289062-12.285156 6.785157 0 12.285157 5.5 12.285157 12.285156zm0 0"/><path d="m256.898438 178.863281c-1.414063 0-2.847657-.386719-4.136719-1.195312-9.558594-6.011719-28.28125-3.90625-34.6875-2.585938-4.207031.867188-8.324219-1.835937-9.195313-6.042969-.871094-4.203124 1.824219-8.320312 6.027344-9.199218 2.976562-.621094 29.578125-5.765625 46.144531 4.648437 3.640625 2.289063 4.734375 7.09375 2.445313 10.734375-1.480469 2.351563-4.007813 3.640625-6.597656 3.640625zm0 0"/><path d="m139.050781 208.894531c0 6.785157-5.5 12.289063-12.285156 12.289063s-12.285156-5.503906-12.285156-12.289063c0-6.785156 5.5-12.285156 12.285156-12.285156s12.285156 5.5 12.285156 12.285156zm0 0"/><path d="m102.917969 178.863281c-2.589844 0-5.117188-1.289062-6.597657-3.640625-2.289062-3.636718-1.191406-8.445312 2.445313-10.730468 16.5625-10.417969 43.164063-5.273438 46.144531-4.648438 4.207032.875 6.90625 5 6.03125 9.207031-.878906 4.207031-5.007812 6.90625-9.203125 6.03125-6.417969-1.320312-25.125-3.421875-34.683593 2.585938-1.289063.808593-2.722657 1.195312-4.136719 1.195312zm0 0"/><path d="m179.90625 288.945312c-17.320312 0-31.414062-14.09375-31.414062-31.414062 0-4.296875 3.484374-7.785156 7.785156-7.785156 4.296875 0 7.78125 3.488281 7.78125 7.785156 0 8.738281 7.109375 15.847656 15.847656 15.847656s15.847656-7.109375 15.847656-15.847656c0-4.296875 3.484375-7.785156 7.785156-7.785156 4.296876 0 7.78125 3.488281 7.78125 7.785156 0 17.320312-14.089843 31.414062-31.414062 31.414062zm0 0"/><path d="m296.707031 134.164062h-31.921875c-17.097656 0-30.957031-13.859374-30.957031-30.960937v-56.640625c0-17.097656 13.859375-30.957031 30.957031-30.957031h6.707032c17.097656 0 30.960937 13.859375 30.960937 30.957031v81.855469c0 3.171875-2.574219 5.746093-5.746094 5.746093zm0 0"/></g><path d="m283.605469 5.699219v10.417969c0 42.15625-84.332031 124.828124-195.8125 124.113281h-19.242188c-10.8125 0-19.59375-6.0625-19.59375-13.523438v-84.363281c0-23.382812 27.542969-42.34375 61.5-42.34375h164.898438c1.234375 0 2.417969.1875 3.464843.53125 2.824219.902344 4.785157 2.871094 4.785157 5.167969zm0 0" fill="#c0694e"/><path d="m278.820312.53125c-19.300781 43.929688-95.113281 105.023438-191.027343 104.410156h-19.242188c-10.8125 0-19.59375-6.058594-19.59375-13.519531v-49.078125c0-23.382812 27.542969-42.34375 61.5-42.34375h164.898438c1.234375 0 2.417969.1875 3.464843.53125zm0 0" fill="#c97e67"/><path d="m121.378906 321.625-25.664062 26.769531c-2.0625 2.152344-2.785156 5.261719-1.882813 8.101563l23.296875 73.386718c3.519532 6.4375 12.558594 8.488282 19.007813 4.3125l46.015625-29.800781-47.878906-81.265625c-2.738282-4.652344-9.160157-5.398437-12.894532-1.503906zm0 0" fill="#aec2e9"/><path d="m238.089844 321.625 25.660156 26.769531c2.066406 2.152344 2.789062 5.261719 1.886719 8.101563l-23.296875 73.386718c-3.519532 6.4375-12.5625 8.488282-19.011719 4.3125l-46.015625-29.800781 47.878906-81.265625c2.738282-4.652344 9.160156-5.398437 12.898438-1.503906zm0 0" fill="#aec2e9"/><path d="m511.925781 141.207031-3.789062-21.488281c-.449219-2.566406-2.902344-4.285156-5.46875-3.828125l-26.4375 4.660156c-1.90625-4.3125-4.269531-8.382812-7.023438-12.144531l17.261719-20.574219c1.675781-1.996093 1.414062-4.976562-.582031-6.652343l-16.714844-14.023438c-1.996094-1.675781-4.976563-1.417969-6.652344.582031l-17.257812 20.566407c-4.164063-2.050782-8.578125-3.671876-13.183594-4.800782v-26.847656c0-2.609375-2.117187-4.722656-4.726563-4.722656h-21.816406c-2.609375 0-4.722656 2.113281-4.722656 4.722656v26.847656c-4.605469 1.128906-9.023438 2.746094-13.1875 4.796875l-17.253906-20.566406c-1.679688-1.996094-4.65625-2.257813-6.65625-.582031l-16.714844 14.027344c-1.996094 1.675781-2.257812 4.65625-.582031 6.652343l17.265625 20.574219c-2.753906 3.761719-5.117188 7.828125-7.027344 12.140625l-26.433594-4.660156c-2.570312-.453125-5.019531 1.261719-5.472656 3.832031l-3.789062 21.484375c-.453126 2.570313 1.261718 5.019531 3.832031 5.472656l26.449219 4.664063c.316406 4.761718 1.136718 9.386718 2.421874 13.816406l-23.246093 13.421875c-2.261719 1.304687-3.035157 4.195313-1.730469 6.453125l10.910156 18.894531c1.304688 2.257813 4.191406 3.03125 6.449219 1.730469l23.261719-13.429688c3.242187 3.375 6.84375 6.402344 10.738281 9.019532l-9.183594 25.234375c-.890625 2.449219.375 5.160156 2.824219 6.050781l20.503906 7.460938c2.449219.894531 5.160156-.371094 6.050782-2.820313l9.1875-25.238281c2.300781.246094 4.640624.378906 7.011718.378906s4.707032-.132812 7.015625-.378906l9.183594 25.238281c.890625 2.449219 3.601563 3.714844 6.050781 2.820313l20.503906-7.460938c2.453126-.890625 3.714844-3.601562 2.824219-6.050781l-9.183593-25.234375c3.898437-2.617188 7.496093-5.644532 10.738281-9.019532l23.261719 13.429688c2.257812 1.300781 5.148437.527344 6.449218-1.730469l10.910156-18.894531c1.304688-2.261719.53125-5.148438-1.730468-6.453125l-23.242188-13.421875c1.28125-4.429688 2.105469-9.054688 2.417969-13.816406l26.449219-4.664063c2.574218-.453125 4.292968-2.902343 3.835937-5.46875zm0 0" fill="#4172cc"/><path d="m462.328125 146.109375c0 25.339844-20.542969 45.878906-45.882813 45.878906-25.339843 0-45.882812-20.539062-45.882812-45.878906s20.542969-45.882813 45.882812-45.882813c25.339844 0 45.882813 20.542969 45.882813 45.882813zm0 0" fill="#2e5aac"/><path d="m416.445312 167.945312c-5.832031 0-11.316406-2.273437-15.441406-6.394531-8.515625-8.515625-8.515625-22.371093 0-30.882812 4.125-4.125 9.609375-6.398438 15.441406-6.398438 5.835938 0 11.316407 2.273438 15.441407 6.398438 8.515625 8.511719 8.515625 22.367187 0 30.882812-4.125 4.121094-9.605469 6.394531-15.441407 6.394531zm0 0" fill="#203e76"/><path d="m511.914062 366.90625-4.5625-25.863281c-.542968-3.09375-3.492187-5.15625-6.582031-4.609375l-31.820312 5.609375c-2.296875-5.191407-5.140625-10.089844-8.457031-14.617188l20.78125-24.761719c2.015624-2.40625 1.703124-5.992187-.703126-8.007812l-20.117187-16.882812c-2.402344-2.015626-5.988281-1.703126-8.007813.699218l-20.769531 24.753906c-5.011719-2.464843-10.324219-4.414062-15.871093-5.777343v-32.3125c0-3.136719-2.542969-5.683594-5.683594-5.683594h-26.261719c-3.140625 0-5.683594 2.546875-5.683594 5.683594v32.3125c-5.546875 1.363281-10.859375 3.3125-15.871093 5.777343l-20.769532-24.753906c-2.019531-2.402344-5.605468-2.714844-8.007812-.699218l-20.117188 16.882812c-2.40625 2.015625-2.71875 5.601562-.699218 8.007812l20.777343 24.761719c-3.316406 4.527344-6.160156 9.425781-8.457031 14.617188l-31.816406-5.609375c-3.09375-.546875-6.042969 1.515625-6.585938 4.609375l-4.5625 25.863281c-.542968 3.089844 1.519532 6.039062 4.613282 6.582031l31.835937 5.613281c.378906 5.734376 1.371094 11.300782 2.914063 16.636719l-27.980469 16.152344c-2.71875 1.570313-3.648438 5.046875-2.078125 7.765625l13.128906 22.742188c1.570312 2.71875 5.046875 3.648437 7.765625 2.082031l27.996094-16.164063c3.902343 4.0625 8.234375 7.707032 12.925781 10.859375l-11.050781 30.367188c-1.074219 2.953125.445312 6.214843 3.398437 7.285156l24.675782 8.984375c2.949218 1.074219 6.210937-.449219 7.285156-3.398438l11.054687-30.371093c2.773438.292969 5.589844.449219 8.441407.449219 2.851562 0 5.667968-.15625 8.441406-.449219l11.054687 30.371093c1.074219 2.953126 4.335938 4.472657 7.285157 3.398438l24.679687-8.984375c2.949219-1.074219 4.46875-4.335937 3.398437-7.285156l-11.054687-30.367188c4.691406-3.152343 9.023437-6.796875 12.925781-10.859375l28 16.164063c2.71875 1.566406 6.191406.636719 7.761719-2.082031l13.132813-22.742188c1.566406-2.71875.636718-6.195312-2.082032-7.765625l-27.980468-16.152344c1.542968-5.335937 2.535156-10.902343 2.914062-16.636719l31.839844-5.613281c3.085937-.542969 5.148437-3.492187 4.605468-6.582031zm0 0" fill="#4172cc"/><path d="m452.210938 372.804688c0 30.5-24.722657 55.222656-55.222657 55.222656s-55.222656-24.722656-55.222656-55.222656 24.722656-55.222657 55.222656-55.222657 55.222657 24.722657 55.222657 55.222657zm0 0" fill="#2e5aac"/><path d="m396.988281 399.089844c-7.019531 0-13.621093-2.734375-18.585937-7.699219-10.25-10.246094-10.25-26.921875 0-37.171875 4.964844-4.960938 11.566406-7.699219 18.585937-7.699219s13.621094 2.738281 18.585938 7.699219c10.25 10.25 10.25 26.925781 0 37.171875-4.964844 4.964844-11.566407 7.699219-18.585938 7.699219zm0 0" fill="#203e76"/></svg>