<svg height="512" viewBox="0 0 50 58" width="512" xmlns="http://www.w3.org/2000/svg"><g id="Page-1" fill="none" fill-rule="evenodd"><g id="056---Phone-Book"><path id="Path" d="m8 0v58h-4c-2.209139 0-4-1.790861-4-4v-50c0-2.209139 1.790861-4 4-4z" fill="#f29c1f"/><path id="Path" d="m46 2v54c-.0032948 1.1032019-.8967981 1.9967052-2 2h-36v-58h36c1.1032019.0032948 1.9967052.89679813 2 2z" fill="#f0c419"/><path id="Path" d="m46 5h1c1.6568542 0 3 1.34314575 3 3v4c0 1.6568542-1.3431458 3-3 3h-1z" fill="#c03a2b"/><path id="Path" d="m46 15h1c1.6568542 0 3 1.3431458 3 3v4c0 1.6568542-1.3431458 3-3 3h-1z" fill="#e64c3c"/><path id="Path" d="m46 25h1c1.6568542 0 3 1.3431458 3 3v4c0 1.6568542-1.3431458 3-3 3h-1z" fill="#c03a2b"/><path id="Path" d="m46 35h1c1.6568542 0 3 1.3431458 3 3v4c0 1.6568542-1.3431458 3-3 3h-1z" fill="#e64c3c"/><rect id="Rectangle" fill="#d1d4d1" height="28" rx="2" width="28" x="13" y="5"/><path id="Path" d="m36 39h-18c-.5522847 0-1-.4477153-1-1s.4477153-1 1-1h18c.5522847 0 1 .4477153 1 1s-.4477153 1-1 1z" fill="#35495e"/><path id="Path" d="m32 43h-10c-.5522847 0-1-.4477153-1-1s.4477153-1 1-1h10c.5522847 0 1 .4477153 1 1s-.4477153 1-1 1z" fill="#35495e"/><g fill="#e57e25"><path id="Path" d="m4 7c-.55228475 0-1-.44771525-1-1v-2c0-.55228475.44771525-1 1-1s1 .44771525 1 1v2c0 .55228475-.44771525 1-1 1z"/><path id="Path" d="m4 49c-.55228475 0-1-.4477153-1-1v-38c0-.55228475.44771525-1 1-1s1 .44771525 1 1v38c0 .5522847-.44771525 1-1 1z"/><path id="Path" d="m4 55c-.55228475 0-1-.4477153-1-1v-2c0-.5522847.44771525-1 1-1s1 .4477153 1 1v2c0 .5522847-.44771525 1-1 1z"/></g><path id="Path" d="m39.83 32.82c-.2595409.1218581-.5432957.1833952-.83.18h-24c-.2680598-.000867-.5332466-.0552643-.78-.16.2923461-.9946911.7596547-1.9293085 1.38-2.76 1.5177857-1.9423782 3.8449435-3.0782968 6.31-3.08h10.24c2.4650565.0017032 4.7922143 1.1376218 6.31 3.08.6151376.8251111 1.0789936 1.7528233 1.37 2.74z" fill="#ecf0f1"/><path id="Path" d="m34.03 16v2c-4 0-5-4-5-4 0 4-9 3-9 3v-1c0-3.8659932 3.1340068-7 7-7s7 3.1340068 7 7z" fill="#a56a43"/><path id="Path" d="m34.03 18v3c0 3.8659932-3.1340068 7-7 7s-7-3.1340068-7-7v-4s9 1 9-3c0 0 1 4 5 4z" fill="#fdd7ad"/><path id="Path" d="m19.53 17h.5v5h-.5c-1.3807119 0-2.5-1.1192881-2.5-2.5s1.1192881-2.5 2.5-2.5z" fill="#f9c795"/><path id="Path" d="m36.53 17h.5v5h-.5c-1.3807119 0-2.5-1.1192881-2.5-2.5s1.1192881-2.5 2.5-2.5z" fill="#f9c795" transform="matrix(-1 0 0 -1 71.06 39)"/></g></g></svg>